# xmcd
#
# Track frame offsets:
#	150
#	14835
#	30942
#	41978
#	57674
#	71565
#	87708
#	107179
#	120964
#	139263
#	158241
#
# Disc length: 2400 seconds
#
# Revision: 0
# Processed by: cddbd v1.5.2PL0 Copyright (c) Steve Scherf et al.
# Submitted via: EasyCDDAExtractor 2010.4.0.0
#
DISCID=9f095e0b
DTITLE=Topi Sorsakoski and Kulkukoirat - Itse asiassa
DYEAR=2009
DGENRE=National Folk
TTITLE0=Hukkateill‰
TTITLE1=Ne veiv‰t sut multa
TTITLE2=Miksi et j‰‰d‰ vois
TTITLE3=Poltettu rakkaus
TTITLE4=S‰ h‰ipynyt oot Helsinkiin
TTITLE5=Hiljenee
TTITLE6=L‰pi j‰‰n
TTITLE7=Silkkinen divaani
TTITLE8=Kitaristivalssi
TTITLE9=Rakkauden kintereill‰
TTITLE10=Testamentti sinulle
EXTD=
EXTT0=
EXTT1=
EXTT2=
EXTT3=
EXTT4=
EXTT5=
EXTT6=
EXTT7=
EXTT8=
EXTT9=
EXTT10=
PLAYORDER=
